<?xml version="1.0"?>
<svg xmlns="http://www.w3.org/2000/svg" xmlns:xlink="http://www.w3.org/1999/xlink" xmlns:svgjs="http://svgjs.com/svgjs" version="1.1" width="512" height="512" x="0" y="0" viewBox="0 0 512 512" style="enable-background:new 0 0 512 512" xml:space="preserve" class=""><g><path xmlns="http://www.w3.org/2000/svg" d="m512 167.714v-90.069l-77.645-77.645h-356.71l-77.645 77.645v90.069h34.429v245.429h-34.429v98.857h512v-98.857h-34.429v-245.429zm-421.93-137.714h331.86l38.857 38.857h-409.574zm-60.07 68.857h452v38.856h-452zm452 383.143h-452v-38.857h452zm-348.714-107.714h38.856v38.856h-38.856zm245.428 38.857h-38.856v-68.856h-68.858v-68.857h-137.714v-38.857h245.428zm-176.571-38.857h38.857v38.856h-38.857zm38.857-30h-38.857v-38.857h38.857zm30 30h38.857v38.856h-38.857zm-137.714-68.857h38.856v38.857h-38.856zm314.285 107.714h-38.857v-206.572h-305.428v206.571h-38.857v-245.428h383.143v245.429z" fill="#3849FC" data-original="#000000" style="" class=""/></g></svg>
