<?xml version="1.0" encoding="iso-8859-1"?>
<!-- Generator: Adobe Illustrator 19.0.0, SVG Export Plug-In . SVG Version: 6.00 Build 0)  -->
<svg version="1.1" id="Capa_1" xmlns="http://www.w3.org/2000/svg" xmlns:xlink="http://www.w3.org/1999/xlink" x="0px" y="0px"
	 viewBox="0 0 504.242 504.242" style="enable-background:new 0 0 504.242 504.242;" xml:space="preserve">
<rect x="11.636" y="201.697" style="fill:#FDBF5E;" width="480.97" height="294.788"/>
<path style="fill:#193651;" d="M492.606,504.242H11.636c-4.655,0-7.758-3.103-7.758-7.758V201.697c0-4.655,3.103-7.758,7.758-7.758
	h480.97c4.655,0,7.758,3.103,7.758,7.758v294.788C500.364,501.139,497.261,504.242,492.606,504.242z M19.394,488.727h465.455
	V209.455H19.394V488.727z"/>
<path style="fill:#FFFFFF;" d="M287.03,169.891c-19.394,0-34.909,23.273-34.909,42.667v283.927
	c0-19.394,15.515-42.667,34.909-42.667H455.37V169.891H287.03z"/>
<path style="fill:#193651;" d="M252.121,504.242c-4.655,0-7.758-3.103-7.758-7.758V212.558c0-23.273,18.618-50.424,42.667-50.424
	H455.37c4.655,0,7.758,3.103,7.758,7.758v283.927c0,4.655-3.103,7.758-7.758,7.758H287.03c-14.739,0-27.152,19.394-27.152,34.909
	C259.879,501.139,256.776,504.242,252.121,504.242z M287.03,177.648c-14.739,0-27.152,19.394-27.152,34.909v246.691
	c6.982-7.758,17.067-13.188,27.152-13.188h160.582V177.648H287.03z"/>
<path style="fill:#E1E6E9;" d="M283.152,204.8c0-2.327,1.552-3.879,3.879-3.879h137.309v221.867H287.03c-1.552,0-2.327,0-3.879,0
	V204.8z"/>
<path style="fill:#FFFFFF;" d="M217.212,169.891c19.394,0,34.909,23.273,34.909,42.667v283.927
	c0-19.394-15.515-42.667-34.909-42.667H48.873V169.891H217.212z"/>
<path style="fill:#193651;" d="M252.121,504.242c-4.655,0-7.758-3.103-7.758-7.758c0-15.515-13.188-34.909-27.152-34.909H48.873
	c-4.655,0-7.758-3.103-7.758-7.758V169.891c0-4.655,3.103-7.758,7.758-7.758h168.339c24.048,0,42.667,27.152,42.667,50.424v283.927
	C259.879,501.139,256.776,504.242,252.121,504.242z M56.63,446.061h160.582c10.085,0,20.17,5.43,27.152,13.188V212.558
	c0-15.515-13.188-34.909-27.152-34.909H56.63V446.061z"/>
<path style="fill:#E1E6E9;" d="M221.091,422.788c-1.552,0-2.327,0-3.879,0H79.903V200.921h137.309c2.327,0,3.879,1.552,3.879,3.879
	V422.788z"/>
<g>
	<rect x="100.848" y="368.485" style="fill:#193651;" width="15.515" height="15.515"/>
	<rect x="142.739" y="368.485" style="fill:#193651;" width="15.515" height="15.515"/>
</g>
<rect x="184.63" y="368.485" style="fill:#193651;" width="15.515" height="15.515"/>
<path style="fill:#FFFFFF;" d="M103.952,265.309l38.012,66.715c1.552,2.327,4.655,2.327,6.206,0l38.012-66.715V65.939h-82.23
	V265.309z"/>
<path style="fill:#193651;" d="M145.067,341.333L145.067,341.333c-3.879,0-7.758-2.327-10.085-5.43l-38.788-68.267V58.958h97.745
	v208.679l-38.788,68.267C152.824,339.006,148.945,341.333,145.067,341.333z M111.709,262.982l33.358,58.182l33.358-58.182V73.697
	h-66.715V262.982z"/>
<rect x="131.103" y="72.921" style="fill:#2EA2DB;" width="27.927" height="192.388"/>
<path style="fill:#FDBF5E;" d="M103.952,265.309l38.012,65.939c1.552,2.327,4.655,2.327,6.206,0l38.012-65.939"/>
<path style="fill:#193651;" d="M145.067,341.333L145.067,341.333c-3.879,0-7.758-2.327-10.085-5.43L96.97,269.964l13.188-7.758
	l34.133,59.733l34.133-59.733l13.188,7.758L153.6,335.903C152.824,339.006,148.945,341.333,145.067,341.333z"/>
<path style="fill:#F16051;" d="M169.891,7.758h-49.648c-9.309,0-16.291,6.982-16.291,16.291v41.891h82.23V24.048
	C186.182,14.739,178.424,7.758,169.891,7.758z"/>
<g>
	<path style="fill:#193651;" d="M193.939,73.697H96.194V24.048C96.194,10.861,107.055,0,120.242,0h48.873
		c6.206,0,12.412,2.327,17.067,6.982s6.982,10.861,6.982,17.067L193.939,73.697z M111.709,58.182h66.715V24.048
		c0-4.655-3.879-8.533-8.533-8.533h-49.648c-4.655,0-8.533,3.879-8.533,8.533V58.182z"/>
	<path style="fill:#193651;" d="M128.776,309.527l13.188,22.497c1.552,2.327,4.655,2.327,6.206,0l13.188-22.497H128.776z"/>
	<path style="fill:#193651;" d="M145.067,341.333c-3.879,0-7.758-2.327-10.085-5.43l-19.394-34.133h58.958l-19.394,34.133
		C152.824,339.006,148.945,341.333,145.067,341.333z M142.739,317.285l2.327,4.655l2.327-4.655H142.739z"/>
	<rect x="307.976" y="225.745" style="fill:#193651;" width="91.539" height="15.515"/>
	<rect x="307.976" y="262.982" style="fill:#193651;" width="91.539" height="15.515"/>
	<rect x="307.976" y="300.218" style="fill:#193651;" width="91.539" height="15.515"/>
	<rect x="307.976" y="337.455" style="fill:#193651;" width="91.539" height="15.515"/>
	<rect x="307.976" y="374.691" style="fill:#193651;" width="91.539" height="15.515"/>
</g>
<g>
</g>
<g>
</g>
<g>
</g>
<g>
</g>
<g>
</g>
<g>
</g>
<g>
</g>
<g>
</g>
<g>
</g>
<g>
</g>
<g>
</g>
<g>
</g>
<g>
</g>
<g>
</g>
<g>
</g>
</svg>
