<svg height="512" viewBox="0 0 64 64" width="512" xmlns="http://www.w3.org/2000/svg"><g id="log_out_social_media_interaction_communication_web" data-name="log out social media interaction communication web"><path d="m22.363 57.218-17.771-8.576a2.821 2.821 0 0 1 -1.592-2.542v-36.776a2.807 2.807 0 0 1 4.02-2.544l17.771 8.576a2.824 2.824 0 0 1 1.592 2.544v36.775a2.807 2.807 0 0 1 -4.02 2.543z" fill="#4370ff"/><path d="m55.335 18.664-2.609 3.036 4.055 3.492h-28.4v-7.292a4.845 4.845 0 0 0 -2.723-4.344l-10.475-5.056h29.309v11.4h4v-15.4h-42.541v.011a4.8 4.8 0 0 0 -4.951 4.813v36.776a4.843 4.843 0 0 0 2.723 4.344l1.277.614v-41.734a.806.806 0 0 1 1.151-.742l17.772 8.577a.826.826 0 0 1 .46.741v36.774a.807.807 0 0 1 -1.151.743l-14.232-6.869v4.441l12.494 6.029a4.808 4.808 0 0 0 6.889-4.345v-4.8h20.109v-15.4h-4v11.4h-16.109v-16.686h28.4l-4.054 3.491 2.609 3.031 7.662-6.6v-3.845z"/></g></svg>