<?xml version="1.0"?>
<svg xmlns="http://www.w3.org/2000/svg" xmlns:xlink="http://www.w3.org/1999/xlink" xmlns:svgjs="http://svgjs.com/svgjs" version="1.1" width="512" height="512" x="0" y="0" viewBox="0 0 512 512" style="enable-background:new 0 0 512 512" xml:space="preserve" class=""><g><g xmlns="http://www.w3.org/2000/svg"><path d="m467 17h-422c-24.813 0-45 20.187-45 45v292c0 24.813 20.187 45 45 45h145.293l-11 66h-19.293c-8.284 0-15 6.716-15 15s6.716 15 15 15h192c8.284 0 15-6.716 15-15s-6.716-15-15-15h-19.293l-11-66h145.293c24.813 0 45-20.187 45-45v-292c0-24.813-20.187-45-45-45zm-164.707 448h-92.586l11-66h70.586zm179.707-111c0 8.271-6.729 15-15 15-10.702 0-409.447 0-422 0-8.271 0-15-6.729-15-15v-292c0-8.271 6.729-15 15-15h422c8.271 0 15 6.729 15 15z" fill="#a0262f" data-original="#000000" style="" class=""/><path d="m432 177c-8.284 0-15 6.716-15 15v113h-40v-113c0-8.284-6.716-15-15-15s-15 6.716-15 15v113h-41v-49c0-8.284-6.716-15-15-15s-15 6.716-15 15v49h-40v-81c0-8.284-6.716-15-15-15s-15 6.716-15 15v81h-41v-113c0-8.284-6.716-15-15-15s-15 6.716-15 15v113h-40v-145c0-8.284-6.716-15-15-15s-15 6.716-15 15v160c0 8.284 6.716 15 15 15h352c8.284 0 15-6.716 15-15v-128c0-8.284-6.716-15-15-15z" fill="#a0262f" data-original="#000000" style="" class=""/><path d="m432 105h-72c-3.633 0-7.143 1.319-9.877 3.711l-57.283 50.122-207.63-76.9c-7.771-2.877-16.399 1.089-19.276 8.856-2.877 7.769 1.088 16.399 8.856 19.276 230.338 85.312 217.167 80.935 221.208 80.935 3.577 0 7.1-1.28 9.879-3.712l59.759-52.288h66.364c8.284 0 15-6.716 15-15s-6.716-15-15-15z" fill="#a0262f" data-original="#000000" style="" class=""/></g></g></svg>
