<svg id="Layer_1" enable-background="new 0 0 511.431 511.431" height="512" viewBox="0 0 511.431 511.431" width="512" xmlns="http://www.w3.org/2000/svg"><g><path d="m475.113 124.286c-34.927-58.459-90.53-99.816-156.563-116.455-66.035-16.639-134.594-6.568-193.053 28.361-29.11 17.393-54.358 40.352-74.34 67.394l-11.537-44.44-29.037 7.538 24.847 95.717 95.718-24.847-7.538-29.038-47.98 12.455c17.577-23.663 39.725-43.774 65.254-59.027 51.58-30.817 112.075-39.704 170.336-25.023 58.263 14.681 107.322 51.172 138.14 102.751 20.973 35.104 31.996 75.15 31.877 115.808l30 .088c.135-46.105-12.356-91.502-36.124-131.282z" fill="#a5ffb4"/><path d="m500.71 444.927-24.777-95.736-95.736 24.777 7.517 29.043 47.989-12.42c-17.595 23.65-39.757 43.744-65.297 58.979-51.602 30.779-112.099 39.624-170.354 24.898-58.252-14.724-107.285-51.25-138.064-102.853-20.948-35.119-31.941-75.173-31.792-115.831l-30-.11c-.169 46.106 12.289 91.512 36.027 131.31 34.885 58.484 90.456 99.883 156.478 116.57 20.854 5.271 41.957 7.876 62.92 7.876 45.407 0 90.142-12.229 130.153-36.096 29.123-17.371 54.388-40.313 74.39-67.34l11.504 44.449z" fill="#a5ffb4"/><circle cx="255.777" cy="255.935" fill="#fde888" r="136.204"/><path d="m391.98 255.935c0-75.223-60.98-136.204-136.204-136.204v272.407c75.224.001 136.204-60.979 136.204-136.203z" fill="#ffdb0c"/><path d="m255.777 407.139c-83.374 0-151.204-67.83-151.204-151.204s67.83-151.204 151.204-151.204 151.204 67.83 151.204 151.204-67.83 151.204-151.204 151.204zm0-272.407c-66.832 0-121.204 54.372-121.204 121.204s54.372 121.204 121.204 121.204 121.203-54.373 121.203-121.205-54.371-121.203-121.203-121.203z" fill="#ffdb0c"/><path d="m311.22 36.922c58.263 14.681 107.322 51.172 138.14 102.751 20.973 35.104 31.996 75.15 31.877 115.808l30 .088c.135-46.105-12.356-91.502-36.124-131.283-34.927-58.459-90.53-99.816-156.563-116.455-20.805-5.242-41.861-7.828-62.773-7.825v30.012c18.47-.007 37.067 2.273 55.443 6.904z" fill="#00e4ef"/><path d="m380.197 373.969 7.517 29.043 47.989-12.42c-17.595 23.65-39.757 43.744-65.297 58.979-35.242 21.021-74.635 31.803-114.628 31.841v30.018c45.353-.028 90.031-12.256 129.996-36.094 29.123-17.371 54.388-40.313 74.39-67.34l11.504 44.449 29.043-7.517-24.777-95.736z" fill="#00e4ef"/><path d="m255.777 104.732v30c66.832 0 121.204 54.372 121.204 121.204s-54.372 121.204-121.204 121.204v30c83.374 0 151.204-67.83 151.204-151.204s-67.83-151.204-151.204-151.204z" fill="#fbbf00"/><path d="m302.415 247.308c4.601-6.966 7.289-15.302 7.289-24.257 0-22.572-17.034-41.229-38.92-43.821v-19.396h-30v19.077h-43.647v30h17.999v92.681h-17.999v30h43.647v19.077h30v-19.077h2.482c26.026 0 47.2-21.174 47.2-47.2 0-15.032-7.07-28.434-18.051-37.084zm-36.851-38.398c7.796 0 14.14 6.343 14.14 14.14s-6.343 14.14-14.14 14.14h-20.429v-28.28zm7.702 58.28c9.484 0 17.2 7.716 17.2 17.201s-7.716 17.2-17.2 17.2h-28.131v-34.401z" fill="#ffa900"/><path d="m302.415 247.308c4.601-6.966 7.289-15.302 7.289-24.257 0-22.572-17.034-41.229-38.92-43.821v-19.396h-15.007v49.077h9.788c7.796 0 14.14 6.343 14.14 14.14s-6.343 14.14-14.14 14.14h-9.788v30h17.489c9.484 0 17.2 7.716 17.2 17.201s-7.716 17.2-17.2 17.2h-17.489v49.077h15.007v-19.077h2.482c26.026 0 47.2-21.174 47.2-47.2 0-15.032-7.07-28.434-18.051-37.084z" fill="#f80"/></g></svg>