<svg height="511pt" viewBox="0 -3 511.9992 511" width="511pt" xmlns="http://www.w3.org/2000/svg"><path d="m128.132812 263.941406-100.363281-99.09375c-19.039062-18.800781-19.039062-49.539062 0-68.339844l85.933594-84.847656 370.074219 365.394532-86.804688 85.703124c-18.699218 18.464844-48.773437 18.464844-67.476562 0l-86.8125-85.714843zm0 0" fill="#ff415b"/><path d="m103.683594 115.785156c9.757812 9.632813 9.757812 25.25 0 34.878906-9.753906 9.632813-25.570313 9.632813-35.324219 0-9.753906-9.628906-9.753906-25.246093 0-34.878906 9.753906-9.628906 25.570313-9.628906 35.324219 0zm0 0" fill="#fff"/><path d="m349.804688 42.269531 113.828124 113.824219-303.648437 303.648438-113.828125-113.824219zm0 0" fill="#ffb655"/><path d="m159.984375 459.742188-12.203125 12.203124c-31.433594 31.433594-82.394531 31.433594-113.828125 0-31.433594-31.429687-31.433594-82.394531 0-113.824218l12.203125-12.203125zm0 0" fill="#b6baf2"/><path d="m501.617188 14.757812-68.917969 12.488282 51.675781 51.671875zm0 0" fill="#5e6e82"/><path d="m432.699219 27.246094-82.894531 15.023437 113.828124 113.824219 20.742188-77.175781zm0 0" fill="#fff"/><path d="m509.257812 6.949219c-2.40625-2.617188-5.988281-3.820313-9.488281-3.1875l-68.917969 12.488281-82.898437 15.023438c-.023437.003906-.046875.015624-.070313.019531-.417968.078125-.824218.183593-1.226562.3125-.101562.03125-.195312.070312-.292969.105469-.308593.109374-.613281.230468-.910156.367187-.109375.050781-.21875.101563-.328125.15625-.371094.1875-.734375.390625-1.082031.621094-.007813.003906-.015625.011719-.023438.015625-.335937.226562-.65625.480468-.96875.746094-.09375.082031-.179687.164062-.265625.242187-.105468.097656-.21875.1875-.320312.289063l-94.601563 94.605468-24.277343-23.96875c-.277344-.371094-.574219-.734375-.910157-1.074218-.398437-.40625-.828125-.757813-1.269531-1.078126l-100.410156-99.140624c-4.042969-3.992188-10.542969-3.992188-14.585938 0l-86.457031 85.367187c-11.0625 10.921875-17.152344 25.496094-17.152344 41.039063 0 15.542968 6.089844 30.117187 17.152344 41.035156l93.453125 92.273437-74.589844 74.589844-12.199218 12.203125c-17.164063 17.164062-26.617188 39.980469-26.617188 64.253906 0 24.273438 9.453125 47.089844 26.617188 64.253906 17.710937 17.710938 40.980468 26.570313 64.25 26.570313 23.269531 0 46.539062-8.855469 64.253906-26.570313l87.609375-87.609374 79.988281 78.972656c11.167969 11.027344 25.84375 16.542968 40.515625 16.542968 14.675781 0 29.347656-5.515624 40.519531-16.542968l87.316406-86.210938c1.976563-1.953125 3.085938-4.613281 3.085938-7.386718 0-2.777344-1.109375-5.4375-3.085938-7.386719l-113.882812-112.445313 93.785156-93.785156c.296875-.296875.5625-.605469.8125-.929688.066406-.082031.125-.167968.191406-.253906.191407-.257812.367188-.523437.535157-.796875.050781-.089843.105469-.175781.160156-.269531.1875-.335938.363281-.679688.511719-1.03125.011718-.027344.023437-.050781.035156-.078125.164062-.394531.300781-.796875.414062-1.207031.007813-.027344.019532-.050782.027344-.078125l20.738282-77.179688 17.246093-64.160156c.921875-3.4375.023438-7.105469-2.386719-9.722656zm-21.917968 20.164062-8.328125 30.984375-20.488281-20.492187-4.464844-4.460938zm-58.136719 10.535157 43.589844 43.589843-14.523438 54.035157-87.105469-87.105469zm-394.664063 118.511718c-7.082031-6.988281-10.980468-16.316406-10.980468-26.261718 0-9.949219 3.898437-19.277344 10.980468-26.265626l79.164063-78.167968 42.339844 41.804687-20.578125 20.320313c-4.082032 4.027344-4.121094 10.597656-.09375 14.679687 2.03125 2.054688 4.707031 3.085938 7.386718 3.085938 2.632813 0 5.269532-.996094 7.292969-2.992188l20.765625-20.507812 29.609375 29.234375-20.332031 20.074218c-4.078125 4.03125-4.121094 10.601563-.09375 14.683594 2.03125 2.054688 4.707031 3.085938 7.386719 3.085938 2.632812 0 5.269531-.996094 7.292969-2.996094l20.519531-20.257812 17.980469 17.753906-105.09375 105.09375zm100.976563 114.300782c0-.003907.003906-.003907.003906-.003907 0-.003906.003907-.003906.003907-.007812l214.28125-214.28125 19.316406 19.3125-42.648438 42.648437c-4.050781 4.054688-4.050781 10.625 0 14.679688 2.027344 2.027344 4.683594 3.042968 7.339844 3.042968s5.3125-1.015624 7.339844-3.042968l42.648437-42.644532 28.703125 28.707032-288.964844 288.96875-28.707031-28.707032 191.089844-191.09375c4.054687-4.050781 4.054687-10.625 0-14.679687-4.050781-4.050781-10.625-4.050781-14.679687 0l-191.089844 191.09375-19.316406-19.316406zm4.925781 193.367187c-27.335937 27.332031-71.8125 27.332031-99.148437 0-13.242188-13.242187-20.53125-30.847656-20.53125-49.574219 0-18.726562 7.289062-36.332031 20.53125-49.574218l4.863281-4.863282 5.664062 5.664063 20.988282 20.992187h.003906v.003906l72.492188 72.488282zm247.199219-167.890625-20.863281 20.597656c-4.078125 4.03125-4.121094 10.601563-.09375 14.683594 2.03125 2.054688 4.707031 3.085938 7.386718 3.085938 2.636719 0 5.269532-.996094 7.292969-2.996094l21.050781-20.785156 32.75 32.339843-21.128906 20.863281c-4.078125 4.027344-4.121094 10.597657-.09375 14.679688 2.03125 2.054688 4.707032 3.085938 7.386719 3.085938 2.636719 0 5.269531-.996094 7.292969-2.992188l21.316406-21.046875 19.0625 18.820313-79.832031 78.824218c-14.300781 14.121094-37.566407 14.121094-51.867188 0l-79.890625-78.878906 105.09375-105.097656zm-32.566406-46.746094v.003906s-.003907 0-.003907.003907l-119.769531 119.765625c0 .003906-.003906.003906-.003906.003906v.003906l-75.3125 75.3125-21.765625-21.765625 288.96875-288.96875 21.765625 21.765625zm0 0"/><path d="m61.066406 107.621094c-6.707031 6.621094-10.402344 15.4375-10.402344 24.824218 0 9.386719 3.695313 18.203126 10.402344 24.828126 6.878906 6.792968 15.917969 10.1875 24.957032 10.1875 9.035156 0 18.074218-3.394532 24.953124-10.1875 6.710938-6.625 10.40625-15.441407 10.402344-24.828126 0-9.386718-3.695312-18.203124-10.402344-24.824218-13.757812-13.585938-36.148437-13.585938-49.910156 0zm35.324219 34.878906c-5.714844 5.644531-15.019531 5.644531-20.738281 0-2.726563-2.695312-4.230469-6.265625-4.230469-10.054688 0-3.789062 1.503906-7.359374 4.230469-10.054687 2.859375-2.820313 6.617187-4.234375 10.371094-4.234375 3.753906 0 7.507812 1.414062 10.367187 4.234375 2.726563 2.695313 4.230469 6.265625 4.230469 10.054687 0 3.789063-1.503906 7.359376-4.230469 10.054688zm0 0"/><path d="m301.242188 161.832031.757812.46875c1.699219 1.050781 3.585938 1.550781 5.449219 1.550781 3.476562 0 6.875-1.746093 8.839843-4.917968 3.015626-4.875 1.507813-11.269532-3.367187-14.289063l-.753906-.464843c-4.875-3.015626-11.273438-1.511719-14.289063 3.363281-3.019531 4.875-1.511718 11.273437 3.363282 14.289062zm0 0"/><path d="m304.15625 369.886719-.757812-.46875c-4.875-3.011719-11.269532-1.507813-14.289063 3.367187-3.015625 4.875-1.511719 11.269532 3.363281 14.289063l.757813.464843c1.703125 1.054688 3.585937 1.554688 5.453125 1.554688 3.476562 0 6.871094-1.746094 8.835937-4.917969 3.015625-4.875 1.507813-11.273437-3.363281-14.289062zm0 0"/><path d="m335.246094 402.546875c-4.054688-4.054687-10.625-4.054687-14.679688 0-4.054687 4.050781-4.054687 10.625 0 14.679687l28.4375 28.4375c2.023438 2.023438 4.679688 3.039063 7.335938 3.039063s5.316406-1.015625 7.339844-3.039063l29.179687-29.179687c4.054687-4.054687 4.054687-10.625 0-14.679687-4.054687-4.054688-10.625-4.054688-14.679687 0l-21.839844 21.835937zm0 0"/></svg>